<svg xmlns="http://www.w3.org/2000/svg" viewBox="0 0 84 48"><rect width="84" height="48" rx="12" fill="#fff"/><path d="M34 24.5c0-1.4-.1-2.4-.4-3.5H21v5.1h7.4c-.2 1.3-1 3.2-2.8 4.5l4.3 3.5c2.7-2.5 4.1-6.2 4.1-9.6" fill="#4285f4"/><path d="M21 37.6c3.6 0 6.7-1.2 8.9-3.3l-4.3-3.4c-1.2.8-2.7 1.4-4.6 1.4-3.5 0-6.5-2.4-7.5-5.7l-4.6 3.6c2.2 4.4 6.8 7.4 12.1 7.4" fill="#34a853"/><path d="M13.5 26.6a8.6 8.6 0 0 1-.5-2.8c0-1 .2-2 .5-2.8l-4.6-3.5a13.8 13.8 0 0 0 0 12.7l4.6-3.6" fill="#fbbc04"/><path d="M21 15.3c2.5 0 4.2 1.1 5.2 2l3.8-3.8C27.7 11.3 24.6 10 21 10c-5.3 0-9.9 3-12.1 7.5l4.6 3.5c1.1-3.3 4-5.7 7.5-5.7" fill="#ea4335"/><text x="40" y="29" font-family="Arial,sans-serif" font-size="15" font-weight="700" fill="#3c4043">Pay</text></svg>
